<svg xmlns="http://www.w3.org/2000/svg" style="display: none;">
  <!--
    Casa / Home icon based on Flaticon icon #25694, Dave Gandy Fill.
    Source: https://www.flaticon.es/icono-gratis/casa_25694
    License declared by Flaticon: CC BY 3.0, attribution required.
    Attribution: Icon by Dave Gandy via Flaticon.
  -->
  <symbol id="icon-urbanizacion" viewBox="0 0 1664 1408">
    <path fill="currentColor" d="M1408 544v416q0 26-19 45t-45 19H960V640H704v384H320q-26 0-45-19t-19-45V544q0-1 .5-3t.5-3L832 64l575 474q1 2 1 6zm223-69l-62 74q-8 9-21 11h-3q-13 0-21-7L832-24 140 553q-12 8-24 7-13-2-21-11l-62-74q-8-10-7-23.5t11-21.5l719-599q32-26 76-26t76 26l244 204v-195q0-14 9-23t23-9h192q14 0 23 9t9 23v408l219 182q10 8 11 21.5t-7 23.5z" />
  </symbol>
</svg>
